<mxfile host="app.diagrams.net" modified="2023-11-04T22:21:12.243Z" agent="Mozilla/5.0 (Windows NT 10.0; Win64; x64) AppleWebKit/537.36 (KHTML, like Gecko) Chrome/119.0.0.0 Safari/537.36" etag="IdayS4x78jRaTRB-OWm7" version="22.0.8" type="github">
  <diagram id="C5RBs43oDa-KdzZeNtuy" name="Page-1">
    <mxGraphModel dx="2327" dy="746" grid="1" gridSize="10" guides="1" tooltips="1" connect="1" arrows="1" fold="1" page="1" pageScale="1" pageWidth="827" pageHeight="1169" math="0" shadow="0">
      <root>
        <mxCell id="WIyWlLk6GJQsqaUBKTNV-0" />
        <mxCell id="WIyWlLk6GJQsqaUBKTNV-1" parent="WIyWlLk6GJQsqaUBKTNV-0" />
        <mxCell id="cx2yxB9SbFf84V_Zf7g7-1" value="Modern" style="swimlane;fontStyle=1;align=center;verticalAlign=top;childLayout=stackLayout;horizontal=1;startSize=26;horizontalStack=0;resizeParent=1;resizeParentMax=0;resizeLast=0;collapsible=1;marginBottom=0;whiteSpace=wrap;html=1;" vertex="1" parent="WIyWlLk6GJQsqaUBKTNV-1">
          <mxGeometry x="310" y="120" width="160" height="112" as="geometry" />
        </mxCell>
        <mxCell id="cx2yxB9SbFf84V_Zf7g7-3" value="" style="line;strokeWidth=1;fillColor=none;align=left;verticalAlign=middle;spacingTop=-1;spacingLeft=3;spacingRight=3;rotatable=0;labelPosition=right;points=[];portConstraint=eastwest;strokeColor=inherit;" vertex="1" parent="cx2yxB9SbFf84V_Zf7g7-1">
          <mxGeometry y="26" width="160" height="8" as="geometry" />
        </mxCell>
        <mxCell id="cx2yxB9SbFf84V_Zf7g7-10" value="+ createChair()" style="text;strokeColor=none;fillColor=none;align=left;verticalAlign=top;spacingLeft=4;spacingRight=4;overflow=hidden;rotatable=0;points=[[0,0.5],[1,0.5]];portConstraint=eastwest;whiteSpace=wrap;html=1;" vertex="1" parent="cx2yxB9SbFf84V_Zf7g7-1">
          <mxGeometry y="34" width="160" height="26" as="geometry" />
        </mxCell>
        <mxCell id="cx2yxB9SbFf84V_Zf7g7-11" value="+ createSofa()" style="text;strokeColor=none;fillColor=none;align=left;verticalAlign=top;spacingLeft=4;spacingRight=4;overflow=hidden;rotatable=0;points=[[0,0.5],[1,0.5]];portConstraint=eastwest;whiteSpace=wrap;html=1;" vertex="1" parent="cx2yxB9SbFf84V_Zf7g7-1">
          <mxGeometry y="60" width="160" height="26" as="geometry" />
        </mxCell>
        <mxCell id="cx2yxB9SbFf84V_Zf7g7-4" value="+ createCoffeetable()" style="text;strokeColor=none;fillColor=none;align=left;verticalAlign=top;spacingLeft=4;spacingRight=4;overflow=hidden;rotatable=0;points=[[0,0.5],[1,0.5]];portConstraint=eastwest;whiteSpace=wrap;html=1;" vertex="1" parent="cx2yxB9SbFf84V_Zf7g7-1">
          <mxGeometry y="86" width="160" height="26" as="geometry" />
        </mxCell>
        <mxCell id="cx2yxB9SbFf84V_Zf7g7-12" value="" style="swimlane;fontStyle=1;align=center;verticalAlign=top;childLayout=stackLayout;horizontal=1;startSize=26;horizontalStack=0;resizeParent=1;resizeParentMax=0;resizeLast=0;collapsible=1;marginBottom=0;whiteSpace=wrap;html=1;" vertex="1" parent="WIyWlLk6GJQsqaUBKTNV-1">
          <mxGeometry x="310" y="290" width="160" height="162" as="geometry">
            <mxRectangle x="50" y="280" width="80" height="30" as="alternateBounds" />
          </mxGeometry>
        </mxCell>
        <mxCell id="cx2yxB9SbFf84V_Zf7g7-0" value="«interface»&lt;br&gt;furniture" style="html=1;whiteSpace=wrap;" vertex="1" parent="cx2yxB9SbFf84V_Zf7g7-12">
          <mxGeometry y="26" width="160" height="50" as="geometry" />
        </mxCell>
        <mxCell id="cx2yxB9SbFf84V_Zf7g7-14" value="" style="line;strokeWidth=1;fillColor=none;align=left;verticalAlign=middle;spacingTop=-1;spacingLeft=3;spacingRight=3;rotatable=0;labelPosition=right;points=[];portConstraint=eastwest;strokeColor=inherit;" vertex="1" parent="cx2yxB9SbFf84V_Zf7g7-12">
          <mxGeometry y="76" width="160" height="8" as="geometry" />
        </mxCell>
        <mxCell id="cx2yxB9SbFf84V_Zf7g7-15" value="+ createChair()" style="text;strokeColor=none;fillColor=none;align=left;verticalAlign=top;spacingLeft=4;spacingRight=4;overflow=hidden;rotatable=0;points=[[0,0.5],[1,0.5]];portConstraint=eastwest;whiteSpace=wrap;html=1;" vertex="1" parent="cx2yxB9SbFf84V_Zf7g7-12">
          <mxGeometry y="84" width="160" height="26" as="geometry" />
        </mxCell>
        <mxCell id="cx2yxB9SbFf84V_Zf7g7-16" value="+ createSofa()" style="text;strokeColor=none;fillColor=none;align=left;verticalAlign=top;spacingLeft=4;spacingRight=4;overflow=hidden;rotatable=0;points=[[0,0.5],[1,0.5]];portConstraint=eastwest;whiteSpace=wrap;html=1;" vertex="1" parent="cx2yxB9SbFf84V_Zf7g7-12">
          <mxGeometry y="110" width="160" height="26" as="geometry" />
        </mxCell>
        <mxCell id="cx2yxB9SbFf84V_Zf7g7-17" value="+ createCoffeetable()" style="text;strokeColor=none;fillColor=none;align=left;verticalAlign=top;spacingLeft=4;spacingRight=4;overflow=hidden;rotatable=0;points=[[0,0.5],[1,0.5]];portConstraint=eastwest;whiteSpace=wrap;html=1;" vertex="1" parent="cx2yxB9SbFf84V_Zf7g7-12">
          <mxGeometry y="136" width="160" height="26" as="geometry" />
        </mxCell>
        <mxCell id="cx2yxB9SbFf84V_Zf7g7-18" value="ArtDeco" style="swimlane;fontStyle=1;align=center;verticalAlign=top;childLayout=stackLayout;horizontal=1;startSize=26;horizontalStack=0;resizeParent=1;resizeParentMax=0;resizeLast=0;collapsible=1;marginBottom=0;whiteSpace=wrap;html=1;" vertex="1" parent="WIyWlLk6GJQsqaUBKTNV-1">
          <mxGeometry x="560" y="290" width="160" height="112" as="geometry" />
        </mxCell>
        <mxCell id="cx2yxB9SbFf84V_Zf7g7-20" value="" style="line;strokeWidth=1;fillColor=none;align=left;verticalAlign=middle;spacingTop=-1;spacingLeft=3;spacingRight=3;rotatable=0;labelPosition=right;points=[];portConstraint=eastwest;strokeColor=inherit;" vertex="1" parent="cx2yxB9SbFf84V_Zf7g7-18">
          <mxGeometry y="26" width="160" height="8" as="geometry" />
        </mxCell>
        <mxCell id="cx2yxB9SbFf84V_Zf7g7-21" value="+ createChair()" style="text;strokeColor=none;fillColor=none;align=left;verticalAlign=top;spacingLeft=4;spacingRight=4;overflow=hidden;rotatable=0;points=[[0,0.5],[1,0.5]];portConstraint=eastwest;whiteSpace=wrap;html=1;" vertex="1" parent="cx2yxB9SbFf84V_Zf7g7-18">
          <mxGeometry y="34" width="160" height="26" as="geometry" />
        </mxCell>
        <mxCell id="cx2yxB9SbFf84V_Zf7g7-22" value="+ createSofa()" style="text;strokeColor=none;fillColor=none;align=left;verticalAlign=top;spacingLeft=4;spacingRight=4;overflow=hidden;rotatable=0;points=[[0,0.5],[1,0.5]];portConstraint=eastwest;whiteSpace=wrap;html=1;" vertex="1" parent="cx2yxB9SbFf84V_Zf7g7-18">
          <mxGeometry y="60" width="160" height="26" as="geometry" />
        </mxCell>
        <mxCell id="cx2yxB9SbFf84V_Zf7g7-23" value="+ createCoffeetable()" style="text;strokeColor=none;fillColor=none;align=left;verticalAlign=top;spacingLeft=4;spacingRight=4;overflow=hidden;rotatable=0;points=[[0,0.5],[1,0.5]];portConstraint=eastwest;whiteSpace=wrap;html=1;" vertex="1" parent="cx2yxB9SbFf84V_Zf7g7-18">
          <mxGeometry y="86" width="160" height="26" as="geometry" />
        </mxCell>
        <mxCell id="cx2yxB9SbFf84V_Zf7g7-24" value="Victorian" style="swimlane;fontStyle=1;align=center;verticalAlign=top;childLayout=stackLayout;horizontal=1;startSize=26;horizontalStack=0;resizeParent=1;resizeParentMax=0;resizeLast=0;collapsible=1;marginBottom=0;whiteSpace=wrap;html=1;" vertex="1" parent="WIyWlLk6GJQsqaUBKTNV-1">
          <mxGeometry x="310" y="520" width="160" height="112" as="geometry" />
        </mxCell>
        <mxCell id="cx2yxB9SbFf84V_Zf7g7-26" value="" style="line;strokeWidth=1;fillColor=none;align=left;verticalAlign=middle;spacingTop=-1;spacingLeft=3;spacingRight=3;rotatable=0;labelPosition=right;points=[];portConstraint=eastwest;strokeColor=inherit;" vertex="1" parent="cx2yxB9SbFf84V_Zf7g7-24">
          <mxGeometry y="26" width="160" height="8" as="geometry" />
        </mxCell>
        <mxCell id="cx2yxB9SbFf84V_Zf7g7-27" value="+ createChair()" style="text;strokeColor=none;fillColor=none;align=left;verticalAlign=top;spacingLeft=4;spacingRight=4;overflow=hidden;rotatable=0;points=[[0,0.5],[1,0.5]];portConstraint=eastwest;whiteSpace=wrap;html=1;" vertex="1" parent="cx2yxB9SbFf84V_Zf7g7-24">
          <mxGeometry y="34" width="160" height="26" as="geometry" />
        </mxCell>
        <mxCell id="cx2yxB9SbFf84V_Zf7g7-28" value="+ createSofa()" style="text;strokeColor=none;fillColor=none;align=left;verticalAlign=top;spacingLeft=4;spacingRight=4;overflow=hidden;rotatable=0;points=[[0,0.5],[1,0.5]];portConstraint=eastwest;whiteSpace=wrap;html=1;" vertex="1" parent="cx2yxB9SbFf84V_Zf7g7-24">
          <mxGeometry y="60" width="160" height="26" as="geometry" />
        </mxCell>
        <mxCell id="cx2yxB9SbFf84V_Zf7g7-29" value="+ createCoffeetable()" style="text;strokeColor=none;fillColor=none;align=left;verticalAlign=top;spacingLeft=4;spacingRight=4;overflow=hidden;rotatable=0;points=[[0,0.5],[1,0.5]];portConstraint=eastwest;whiteSpace=wrap;html=1;" vertex="1" parent="cx2yxB9SbFf84V_Zf7g7-24">
          <mxGeometry y="86" width="160" height="26" as="geometry" />
        </mxCell>
        <mxCell id="cx2yxB9SbFf84V_Zf7g7-34" value="" style="endArrow=block;dashed=1;endFill=0;endSize=12;html=1;rounded=0;entryX=0.5;entryY=0;entryDx=0;entryDy=0;exitX=0.498;exitY=1.192;exitDx=0;exitDy=0;exitPerimeter=0;" edge="1" parent="WIyWlLk6GJQsqaUBKTNV-1" source="cx2yxB9SbFf84V_Zf7g7-4" target="cx2yxB9SbFf84V_Zf7g7-12">
          <mxGeometry width="160" relative="1" as="geometry">
            <mxPoint x="260" y="260" as="sourcePoint" />
            <mxPoint x="420" y="260" as="targetPoint" />
          </mxGeometry>
        </mxCell>
        <mxCell id="cx2yxB9SbFf84V_Zf7g7-35" value="" style="endArrow=block;dashed=1;endFill=0;endSize=12;html=1;rounded=0;exitX=0;exitY=0.5;exitDx=0;exitDy=0;entryX=1;entryY=1;entryDx=0;entryDy=0;" edge="1" parent="WIyWlLk6GJQsqaUBKTNV-1" source="cx2yxB9SbFf84V_Zf7g7-22" target="cx2yxB9SbFf84V_Zf7g7-0">
          <mxGeometry width="160" relative="1" as="geometry">
            <mxPoint x="470" y="250" as="sourcePoint" />
            <mxPoint x="500" y="313" as="targetPoint" />
          </mxGeometry>
        </mxCell>
        <mxCell id="cx2yxB9SbFf84V_Zf7g7-36" value="" style="endArrow=block;dashed=1;endFill=0;endSize=12;html=1;rounded=0;entryX=0.485;entryY=0.987;entryDx=0;entryDy=0;entryPerimeter=0;" edge="1" parent="WIyWlLk6GJQsqaUBKTNV-1" source="cx2yxB9SbFf84V_Zf7g7-24" target="cx2yxB9SbFf84V_Zf7g7-17">
          <mxGeometry width="160" relative="1" as="geometry">
            <mxPoint x="290" y="310" as="sourcePoint" />
            <mxPoint x="450" y="310" as="targetPoint" />
          </mxGeometry>
        </mxCell>
        <mxCell id="cx2yxB9SbFf84V_Zf7g7-37" value="AbstractChair&amp;nbsp;" style="html=1;whiteSpace=wrap;" vertex="1" parent="WIyWlLk6GJQsqaUBKTNV-1">
          <mxGeometry x="150" y="440" width="110" height="50" as="geometry" />
        </mxCell>
        <mxCell id="cx2yxB9SbFf84V_Zf7g7-39" value="AbstractCoffeetable" style="html=1;whiteSpace=wrap;" vertex="1" parent="WIyWlLk6GJQsqaUBKTNV-1">
          <mxGeometry x="-90" y="440" width="110" height="50" as="geometry" />
        </mxCell>
        <mxCell id="cx2yxB9SbFf84V_Zf7g7-40" value="AbstractSofa&amp;nbsp;" style="html=1;whiteSpace=wrap;" vertex="1" parent="WIyWlLk6GJQsqaUBKTNV-1">
          <mxGeometry x="30" y="440" width="110" height="50" as="geometry" />
        </mxCell>
        <mxCell id="cx2yxB9SbFf84V_Zf7g7-41" value="Modern, Victorian, and ArtDeco." style="text;html=1;align=center;verticalAlign=middle;resizable=0;points=[];autosize=1;strokeColor=none;fillColor=none;" vertex="1" parent="WIyWlLk6GJQsqaUBKTNV-1">
          <mxGeometry x="-20" y="740" width="190" height="30" as="geometry" />
        </mxCell>
        <mxCell id="cx2yxB9SbFf84V_Zf7g7-42" value="ArtDecoCoffeeTable" style="html=1;whiteSpace=wrap;" vertex="1" parent="WIyWlLk6GJQsqaUBKTNV-1">
          <mxGeometry x="480" y="452" width="110" height="50" as="geometry" />
        </mxCell>
        <mxCell id="cx2yxB9SbFf84V_Zf7g7-43" value="ArtDecoSofa" style="html=1;whiteSpace=wrap;" vertex="1" parent="WIyWlLk6GJQsqaUBKTNV-1">
          <mxGeometry x="600" y="452" width="110" height="50" as="geometry" />
        </mxCell>
        <mxCell id="cx2yxB9SbFf84V_Zf7g7-44" value="ArtDecoChair" style="html=1;whiteSpace=wrap;" vertex="1" parent="WIyWlLk6GJQsqaUBKTNV-1">
          <mxGeometry x="730" y="452" width="110" height="50" as="geometry" />
        </mxCell>
        <mxCell id="cx2yxB9SbFf84V_Zf7g7-45" value="ModernChair" style="html=1;whiteSpace=wrap;" vertex="1" parent="WIyWlLk6GJQsqaUBKTNV-1">
          <mxGeometry x="150" y="330" width="110" height="50" as="geometry" />
        </mxCell>
        <mxCell id="cx2yxB9SbFf84V_Zf7g7-46" value="VictorianCoffeeTable" style="html=1;whiteSpace=wrap;" vertex="1" parent="WIyWlLk6GJQsqaUBKTNV-1">
          <mxGeometry x="-90" y="551" width="110" height="50" as="geometry" />
        </mxCell>
        <mxCell id="cx2yxB9SbFf84V_Zf7g7-47" value="VictorianChair" style="html=1;whiteSpace=wrap;" vertex="1" parent="WIyWlLk6GJQsqaUBKTNV-1">
          <mxGeometry x="160" y="551" width="110" height="50" as="geometry" />
        </mxCell>
        <mxCell id="cx2yxB9SbFf84V_Zf7g7-48" value="VictorianSofa" style="html=1;whiteSpace=wrap;" vertex="1" parent="WIyWlLk6GJQsqaUBKTNV-1">
          <mxGeometry x="30" y="551" width="110" height="50" as="geometry" />
        </mxCell>
        <mxCell id="cx2yxB9SbFf84V_Zf7g7-49" value="ModernSofa" style="html=1;whiteSpace=wrap;" vertex="1" parent="WIyWlLk6GJQsqaUBKTNV-1">
          <mxGeometry x="30" y="330" width="110" height="50" as="geometry" />
        </mxCell>
        <mxCell id="cx2yxB9SbFf84V_Zf7g7-50" value="ModernCoffeeTable" style="html=1;whiteSpace=wrap;" vertex="1" parent="WIyWlLk6GJQsqaUBKTNV-1">
          <mxGeometry x="-90" y="330" width="110" height="50" as="geometry" />
        </mxCell>
        <mxCell id="cx2yxB9SbFf84V_Zf7g7-51" value="Extends" style="endArrow=block;endSize=16;endFill=0;html=1;rounded=0;exitX=0.5;exitY=1;exitDx=0;exitDy=0;entryX=0.5;entryY=0;entryDx=0;entryDy=0;" edge="1" parent="WIyWlLk6GJQsqaUBKTNV-1" source="cx2yxB9SbFf84V_Zf7g7-50" target="cx2yxB9SbFf84V_Zf7g7-39">
          <mxGeometry width="160" relative="1" as="geometry">
            <mxPoint x="110" y="400" as="sourcePoint" />
            <mxPoint x="270" y="400" as="targetPoint" />
          </mxGeometry>
        </mxCell>
        <mxCell id="cx2yxB9SbFf84V_Zf7g7-52" value="Extends" style="endArrow=block;endSize=16;endFill=0;html=1;rounded=0;exitX=0.5;exitY=1;exitDx=0;exitDy=0;entryX=0.5;entryY=0;entryDx=0;entryDy=0;" edge="1" parent="WIyWlLk6GJQsqaUBKTNV-1" source="cx2yxB9SbFf84V_Zf7g7-49" target="cx2yxB9SbFf84V_Zf7g7-40">
          <mxGeometry width="160" relative="1" as="geometry">
            <mxPoint x="120" y="410" as="sourcePoint" />
            <mxPoint x="280" y="410" as="targetPoint" />
          </mxGeometry>
        </mxCell>
        <mxCell id="cx2yxB9SbFf84V_Zf7g7-53" value="Extends" style="endArrow=block;endSize=16;endFill=0;html=1;rounded=0;exitX=0.5;exitY=1;exitDx=0;exitDy=0;" edge="1" parent="WIyWlLk6GJQsqaUBKTNV-1" source="cx2yxB9SbFf84V_Zf7g7-45" target="cx2yxB9SbFf84V_Zf7g7-37">
          <mxGeometry width="160" relative="1" as="geometry">
            <mxPoint x="130" y="420" as="sourcePoint" />
            <mxPoint x="290" y="420" as="targetPoint" />
          </mxGeometry>
        </mxCell>
        <mxCell id="cx2yxB9SbFf84V_Zf7g7-54" value="Extends" style="endArrow=block;endSize=16;endFill=0;html=1;rounded=0;exitX=0.5;exitY=1;exitDx=0;exitDy=0;entryX=0;entryY=0.5;entryDx=0;entryDy=0;" edge="1" parent="WIyWlLk6GJQsqaUBKTNV-1" source="cx2yxB9SbFf84V_Zf7g7-42" target="cx2yxB9SbFf84V_Zf7g7-39">
          <mxGeometry width="160" relative="1" as="geometry">
            <mxPoint x="540" y="560" as="sourcePoint" />
            <mxPoint x="700" y="560" as="targetPoint" />
            <Array as="points">
              <mxPoint x="535" y="680" />
              <mxPoint x="-140" y="680" />
              <mxPoint x="-140" y="465" />
            </Array>
          </mxGeometry>
        </mxCell>
        <mxCell id="cx2yxB9SbFf84V_Zf7g7-55" value="Extends" style="endArrow=block;endSize=16;endFill=0;html=1;rounded=0;exitX=0.5;exitY=1;exitDx=0;exitDy=0;entryX=1;entryY=1;entryDx=0;entryDy=0;" edge="1" parent="WIyWlLk6GJQsqaUBKTNV-1" source="cx2yxB9SbFf84V_Zf7g7-44" target="cx2yxB9SbFf84V_Zf7g7-37">
          <mxGeometry width="160" relative="1" as="geometry">
            <mxPoint x="740" y="583" as="sourcePoint" />
            <mxPoint x="900" y="583" as="targetPoint" />
            <Array as="points">
              <mxPoint x="785" y="530" />
              <mxPoint x="530" y="520" />
            </Array>
          </mxGeometry>
        </mxCell>
        <mxCell id="cx2yxB9SbFf84V_Zf7g7-56" value="Extends" style="endArrow=block;endSize=16;endFill=0;html=1;rounded=0;exitX=0.5;exitY=1;exitDx=0;exitDy=0;entryX=1;entryY=1;entryDx=0;entryDy=0;" edge="1" parent="WIyWlLk6GJQsqaUBKTNV-1" source="cx2yxB9SbFf84V_Zf7g7-43" target="cx2yxB9SbFf84V_Zf7g7-40">
          <mxGeometry width="160" relative="1" as="geometry">
            <mxPoint x="580" y="575.33" as="sourcePoint" />
            <mxPoint x="655" y="720" as="targetPoint" />
            <Array as="points">
              <mxPoint x="655" y="710" />
              <mxPoint x="140" y="710" />
            </Array>
          </mxGeometry>
        </mxCell>
        <mxCell id="cx2yxB9SbFf84V_Zf7g7-57" value="Extends" style="endArrow=block;endSize=16;endFill=0;html=1;rounded=0;exitX=0.5;exitY=0;exitDx=0;exitDy=0;entryX=0.5;entryY=1;entryDx=0;entryDy=0;" edge="1" parent="WIyWlLk6GJQsqaUBKTNV-1" source="cx2yxB9SbFf84V_Zf7g7-47" target="cx2yxB9SbFf84V_Zf7g7-37">
          <mxGeometry width="160" relative="1" as="geometry">
            <mxPoint x="150" y="510" as="sourcePoint" />
            <mxPoint x="310" y="510" as="targetPoint" />
          </mxGeometry>
        </mxCell>
        <mxCell id="cx2yxB9SbFf84V_Zf7g7-58" value="Extends" style="endArrow=block;endSize=16;endFill=0;html=1;rounded=0;exitX=0.5;exitY=0;exitDx=0;exitDy=0;entryX=0.5;entryY=1;entryDx=0;entryDy=0;" edge="1" parent="WIyWlLk6GJQsqaUBKTNV-1" source="cx2yxB9SbFf84V_Zf7g7-48" target="cx2yxB9SbFf84V_Zf7g7-40">
          <mxGeometry width="160" relative="1" as="geometry">
            <mxPoint x="90" y="520" as="sourcePoint" />
            <mxPoint x="250" y="520" as="targetPoint" />
          </mxGeometry>
        </mxCell>
        <mxCell id="cx2yxB9SbFf84V_Zf7g7-59" value="Extends" style="endArrow=block;endSize=16;endFill=0;html=1;rounded=0;exitX=0.5;exitY=0;exitDx=0;exitDy=0;entryX=0.5;entryY=1;entryDx=0;entryDy=0;" edge="1" parent="WIyWlLk6GJQsqaUBKTNV-1" source="cx2yxB9SbFf84V_Zf7g7-46" target="cx2yxB9SbFf84V_Zf7g7-39">
          <mxGeometry width="160" relative="1" as="geometry">
            <mxPoint x="190" y="480" as="sourcePoint" />
            <mxPoint x="350" y="480" as="targetPoint" />
          </mxGeometry>
        </mxCell>
        <mxCell id="cx2yxB9SbFf84V_Zf7g7-60" value="Use" style="endArrow=open;endSize=12;dashed=1;html=1;rounded=0;entryX=0.5;entryY=0;entryDx=0;entryDy=0;" edge="1" parent="WIyWlLk6GJQsqaUBKTNV-1" target="cx2yxB9SbFf84V_Zf7g7-50">
          <mxGeometry width="160" relative="1" as="geometry">
            <mxPoint x="90" y="170" as="sourcePoint" />
            <mxPoint x="90" y="100.00000000000001" as="targetPoint" />
            <Array as="points">
              <mxPoint x="-35" y="170" />
            </Array>
          </mxGeometry>
        </mxCell>
        <mxCell id="cx2yxB9SbFf84V_Zf7g7-62" value="Use" style="endArrow=open;endSize=12;dashed=1;html=1;rounded=0;exitX=0;exitY=0.5;exitDx=0;exitDy=0;entryX=0.5;entryY=1;entryDx=0;entryDy=0;" edge="1" parent="WIyWlLk6GJQsqaUBKTNV-1" source="cx2yxB9SbFf84V_Zf7g7-29" target="cx2yxB9SbFf84V_Zf7g7-46">
          <mxGeometry width="160" relative="1" as="geometry">
            <mxPoint x="-115" y="660" as="sourcePoint" />
            <mxPoint x="-50" y="610" as="targetPoint" />
            <Array as="points">
              <mxPoint x="310" y="660" />
              <mxPoint x="-40" y="660" />
            </Array>
          </mxGeometry>
        </mxCell>
        <mxCell id="cx2yxB9SbFf84V_Zf7g7-63" value="Use" style="endArrow=open;endSize=12;dashed=1;html=1;rounded=0;entryX=0.5;entryY=1;entryDx=0;entryDy=0;" edge="1" parent="WIyWlLk6GJQsqaUBKTNV-1" target="cx2yxB9SbFf84V_Zf7g7-47">
          <mxGeometry width="160" relative="1" as="geometry">
            <mxPoint x="215" y="660" as="sourcePoint" />
            <mxPoint x="240" y="632" as="targetPoint" />
          </mxGeometry>
        </mxCell>
        <mxCell id="cx2yxB9SbFf84V_Zf7g7-64" value="Use" style="endArrow=open;endSize=12;dashed=1;html=1;rounded=0;entryX=0.5;entryY=1;entryDx=0;entryDy=0;" edge="1" parent="WIyWlLk6GJQsqaUBKTNV-1" target="cx2yxB9SbFf84V_Zf7g7-48">
          <mxGeometry width="160" relative="1" as="geometry">
            <mxPoint x="85" y="660" as="sourcePoint" />
            <mxPoint x="75" y="205.33" as="targetPoint" />
          </mxGeometry>
        </mxCell>
        <mxCell id="cx2yxB9SbFf84V_Zf7g7-65" value="Use" style="endArrow=open;endSize=12;dashed=1;html=1;rounded=0;" edge="1" parent="WIyWlLk6GJQsqaUBKTNV-1" target="cx2yxB9SbFf84V_Zf7g7-45">
          <mxGeometry width="160" relative="1" as="geometry">
            <mxPoint x="200" y="170" as="sourcePoint" />
            <mxPoint x="85" y="215.33" as="targetPoint" />
          </mxGeometry>
        </mxCell>
        <mxCell id="cx2yxB9SbFf84V_Zf7g7-66" value="Use" style="endArrow=open;endSize=12;dashed=1;html=1;rounded=0;exitX=0;exitY=0.5;exitDx=0;exitDy=0;entryX=0.5;entryY=0;entryDx=0;entryDy=0;" edge="1" parent="WIyWlLk6GJQsqaUBKTNV-1" source="cx2yxB9SbFf84V_Zf7g7-10" target="cx2yxB9SbFf84V_Zf7g7-49">
          <mxGeometry width="160" relative="1" as="geometry">
            <mxPoint x="-65" y="225.33" as="sourcePoint" />
            <mxPoint x="95" y="225.33" as="targetPoint" />
            <Array as="points">
              <mxPoint x="85" y="170" />
            </Array>
          </mxGeometry>
        </mxCell>
        <mxCell id="cx2yxB9SbFf84V_Zf7g7-67" value="Use" style="endArrow=open;endSize=12;dashed=1;html=1;rounded=0;exitX=0.521;exitY=1.19;exitDx=0;exitDy=0;exitPerimeter=0;entryX=0.5;entryY=0;entryDx=0;entryDy=0;" edge="1" parent="WIyWlLk6GJQsqaUBKTNV-1" source="cx2yxB9SbFf84V_Zf7g7-23" target="cx2yxB9SbFf84V_Zf7g7-44">
          <mxGeometry width="160" relative="1" as="geometry">
            <mxPoint x="770" y="402" as="sourcePoint" />
            <mxPoint x="930" y="402" as="targetPoint" />
          </mxGeometry>
        </mxCell>
        <mxCell id="cx2yxB9SbFf84V_Zf7g7-68" value="Use" style="endArrow=open;endSize=12;dashed=1;html=1;rounded=0;exitX=0.528;exitY=1.149;exitDx=0;exitDy=0;exitPerimeter=0;entryX=0.5;entryY=0;entryDx=0;entryDy=0;" edge="1" parent="WIyWlLk6GJQsqaUBKTNV-1" source="cx2yxB9SbFf84V_Zf7g7-23" target="cx2yxB9SbFf84V_Zf7g7-42">
          <mxGeometry width="160" relative="1" as="geometry">
            <mxPoint x="440" y="420" as="sourcePoint" />
            <mxPoint x="600" y="420" as="targetPoint" />
          </mxGeometry>
        </mxCell>
        <mxCell id="cx2yxB9SbFf84V_Zf7g7-69" value="Use" style="endArrow=open;endSize=12;dashed=1;html=1;rounded=0;exitX=0.508;exitY=1.067;exitDx=0;exitDy=0;exitPerimeter=0;entryX=0.5;entryY=0;entryDx=0;entryDy=0;" edge="1" parent="WIyWlLk6GJQsqaUBKTNV-1" source="cx2yxB9SbFf84V_Zf7g7-23" target="cx2yxB9SbFf84V_Zf7g7-43">
          <mxGeometry width="160" relative="1" as="geometry">
            <mxPoint x="800" y="400" as="sourcePoint" />
            <mxPoint x="960" y="400" as="targetPoint" />
          </mxGeometry>
        </mxCell>
      </root>
    </mxGraphModel>
  </diagram>
</mxfile>
